<svg width="122" height="53" viewBox="0 0 122 53" fill="none" xmlns="http://www.w3.org/2000/svg">
<path d="M106.683 1.9569C110.791 1.9569 114.312 3.42458 117.252 6.3483C120.193 9.27829 121.659 12.7923 121.659 16.9038C121.659 21.0215 120.193 24.5301 117.252 27.4342C116.853 27.8277 116.444 28.1944 116.024 28.5343C109.105 24.9594 101.796 23.2503 101.645 16.9091C102.918 19.4545 103.652 20.8569 106.392 22.2271C106.61 21.8998 106.843 21.5062 107.076 21.1977C108.252 19.6361 108.499 20.238 111.137 19.6593C113.354 19.1737 113.858 18.1908 114.016 15.7169C112.001 13.9952 112.581 15.1839 111.339 12.38C110.576 10.6583 109.933 10.517 107.908 10.085L108.115 6.68101C103.567 7.75426 100.394 11.5768 98.7996 15.809C96.8104 21.093 97.419 24.6598 98.4163 29.3312C97.6084 28.7892 96.8382 28.1577 96.1066 27.4351C93.1847 24.5176 91.7179 21.0099 91.7179 16.9047C91.7179 12.8057 93.1847 9.29081 96.1066 6.34919C99.0473 3.42547 102.568 1.95779 106.682 1.95779L106.683 1.9569Z" fill="#3D4A39"/>
<path d="M109.978 9.22284L110.238 8.59856C111.335 9.0538 112.339 9.73442 113.247 10.6395L113.247 10.6404C114.165 11.5527 114.853 12.5562 115.312 13.6509C115.772 14.7474 116.001 15.9325 116.001 17.2043C116.001 18.4877 115.771 19.6781 115.31 20.7746C114.851 21.8685 114.163 22.8657 113.245 23.7645C112.331 24.6652 111.326 25.3395 110.233 25.7903C109.135 26.2429 107.951 26.4683 106.683 26.4683C105.395 26.4683 104.2 26.2438 103.098 25.7921C101.998 25.3413 100.997 24.6652 100.094 23.7628L100.093 23.7636C99.1847 22.8585 98.5015 21.8577 98.0446 20.7612C97.5877 19.6656 97.3588 18.4797 97.3588 17.2043C97.3588 15.9387 97.5877 14.7581 98.0437 13.6616C98.4998 12.5669 99.1829 11.5598 100.091 10.6422C100.989 9.73531 101.987 9.0538 103.087 8.59856L103.347 9.22284C102.331 9.64319 101.406 10.2746 100.574 11.1153C99.7278 11.9704 99.0931 12.9059 98.6703 13.921C98.2493 14.9325 98.0384 16.0273 98.0384 17.2043C98.0384 18.392 98.2493 19.4912 98.6712 20.5018C99.0931 21.5134 99.7278 22.4418 100.573 23.2852V23.286C101.412 24.125 102.34 24.7519 103.355 25.1687C104.37 25.5846 105.479 25.7921 106.682 25.7921C107.864 25.7921 108.962 25.5846 109.975 25.1669C110.985 24.7502 111.917 24.1232 112.767 23.2852L112.768 23.2843C113.621 22.4498 114.258 21.5268 114.683 20.5171C115.107 19.5046 115.319 18.401 115.319 17.2052C115.319 16.021 115.108 14.9227 114.684 13.9103C114.259 12.8969 113.621 11.9659 112.766 11.118H112.765C111.919 10.2746 110.989 9.6423 109.977 9.22284H109.978ZM106.683 1.9569C108.781 1.9569 110.731 2.33254 112.536 3.08292C114.338 3.83241 115.99 4.95486 117.492 6.44758H117.492C118.993 7.94298 120.12 9.59132 120.872 11.3917C121.624 13.193 122 15.1427 122 17.2418C122 19.3445 121.623 21.2943 120.872 23.092C120.121 24.8879 118.994 26.5282 117.492 28.0119C115.996 29.4895 114.347 30.5976 112.544 31.3372C110.739 32.0769 108.786 32.4472 106.683 32.4472V32.4463C104.571 32.44 102.612 32.0671 100.808 31.3274C99.0042 30.5878 97.357 29.4832 95.8687 28.0128L95.8678 28.0119C94.375 26.5219 93.2538 24.8789 92.5052 23.0839C91.7556 21.2871 91.3795 19.34 91.3795 17.2436C91.3795 15.1499 91.7556 13.2037 92.5052 11.4024C93.2538 9.60384 94.375 7.95371 95.8678 6.45026L95.8687 6.44937C97.3705 4.95665 99.0222 3.8342 100.826 3.08471C102.63 2.33433 104.582 1.95869 106.684 1.95869L106.683 1.9569ZM112.275 3.7063C110.556 2.9917 108.693 2.63305 106.683 2.63305C104.67 2.63305 102.805 2.9908 101.085 3.7063C99.3642 4.42181 97.7852 5.49506 96.3472 6.92518C94.919 8.36423 93.8454 9.94192 93.1309 11.66C92.4163 13.3763 92.0591 15.2366 92.0591 17.2418C92.0591 19.2506 92.4172 21.1109 93.1309 22.8228C93.8454 24.5364 94.9181 26.1069 96.3472 27.5335C97.7727 28.9412 99.3454 29.9975 101.065 30.7022C102.788 31.4088 104.661 31.7648 106.683 31.7701V31.7683C108.7 31.7683 110.568 31.416 112.286 30.7121C114.006 30.0073 115.581 28.9475 117.013 27.5326C118.451 26.1123 119.528 24.5453 120.246 22.8317C120.962 21.119 121.32 19.256 121.32 17.2409C121.32 15.2295 120.962 13.3656 120.246 11.6493C119.529 9.93297 118.451 8.35797 117.012 6.92428L117.013 6.92339C115.575 5.49327 113.996 4.42002 112.275 3.70452V3.7063Z" fill="#3D4A39"/>
<path d="M103.317 9.1495L103.348 9.22284C103.271 9.25503 103.194 9.28812 103.118 9.32211C101.176 11.0438 99.7224 13.3575 98.7996 15.8081C98.5033 16.5952 98.2645 17.3438 98.0769 18.0638C98.155 18.9268 98.3534 19.7398 98.6712 20.5018C99.0931 21.5134 99.7277 22.4418 100.573 23.2852V23.286C101.412 24.125 102.34 24.7519 103.355 25.1687C104.37 25.5846 105.479 25.7921 106.682 25.7921C107.629 25.7921 108.521 25.6588 109.36 25.3914C105.081 23.3415 101.746 21.1717 101.644 16.9082C102.917 19.4536 103.651 20.856 106.391 22.2262C106.609 21.8989 106.842 21.5053 107.075 21.1977C108.251 19.6361 108.498 20.2371 111.136 19.6593C113.353 19.1737 113.857 18.1908 114.015 15.7169C112 13.9952 112.58 15.1839 111.338 12.38C110.575 10.6583 109.933 10.517 107.907 10.085L108.114 6.68101C106.289 7.1121 104.686 7.98591 103.317 9.15039L103.317 9.1495Z" fill="#DDD5C1"/>
<path d="M110.22 25.7966C109.125 26.2455 107.946 26.4691 106.683 26.4691C105.395 26.4691 104.2 26.2438 103.098 25.793C101.998 25.3422 100.997 24.6661 100.094 23.7636L100.093 23.7645C99.1847 22.8594 98.5015 21.8586 98.0446 20.7621C97.9136 20.4482 97.8014 20.1271 97.708 19.7989C97.1748 23.0893 97.682 25.886 98.3983 29.2489C99.2439 29.8365 100.133 30.3221 101.064 30.704C102.787 31.4106 104.66 31.7665 106.682 31.7719V31.771C108.699 31.771 110.567 31.4186 112.285 30.7148C113.589 30.1799 114.811 29.4412 115.95 28.4976C114.013 27.5013 112.047 26.648 110.219 25.7975L110.22 25.7966Z" fill="#AE7B3C"/>
<path d="M75.3491 2.01235C79.4442 2.01235 82.972 3.46124 85.937 6.36619L81.7108 10.5769C79.9191 8.81679 77.8087 7.93314 75.3868 7.93314C72.9083 7.93314 70.7979 8.81679 69.0565 10.5769C67.3025 12.3245 66.4219 14.4335 66.4219 16.9029C66.4219 19.366 67.3025 21.4749 69.0565 23.2225C70.7854 24.9702 72.8958 25.8476 75.3868 25.8476C77.2162 25.8476 78.8769 25.3378 80.3751 24.3173C81.7548 23.3844 82.7853 22.1779 83.472 20.7093H75.0564V15.0801H90.2018C90.5887 20.0931 89.1596 24.2117 85.9002 27.4333C82.9594 30.3382 79.4388 31.7871 75.3311 31.7871C71.1857 31.7871 67.6651 30.3382 64.7746 27.4333C61.8528 24.5409 60.386 21.0331 60.386 16.9029C60.386 12.8039 61.8528 9.28902 64.7746 6.34741C67.6777 3.42368 71.1983 1.95601 75.3311 1.95601L75.35 2.01235H75.3491Z" fill="#3D4A39"/>
<path d="M75.5933 1.67606C77.5914 1.70379 79.4595 2.07406 81.1956 2.78867C83.0016 3.53101 84.6605 4.64361 86.1749 6.12649L86.419 6.36529L81.7135 11.0536L81.4738 10.8184C80.6094 9.96964 79.6686 9.33195 78.6534 8.90712C77.6417 8.48408 76.5529 8.27211 75.3868 8.27211C74.1929 8.27211 73.0897 8.48408 72.0771 8.90712C71.0628 9.33105 70.1364 9.96696 69.298 10.8139L69.2971 10.8166C68.4506 11.66 67.8159 12.5884 67.394 13.6008C66.973 14.6124 66.7621 15.7133 66.7621 16.9029C66.7621 18.0906 66.973 19.1898 67.3949 20.2004C67.8168 21.212 68.4515 22.1403 69.2971 22.9829L69.298 22.9855C70.1301 23.8271 71.0538 24.4586 72.0672 24.8789C73.0789 25.2984 74.1857 25.5086 75.3868 25.5086C76.2692 25.5086 77.1085 25.386 77.9056 25.1419C78.7036 24.8968 79.4631 24.5292 80.1839 24.0382H80.1848C80.8464 23.591 81.4254 23.0768 81.9218 22.499C82.3033 22.0545 82.6363 21.5706 82.9209 21.0483H74.7162V14.742H90.516L90.5402 15.0551C90.7368 17.6058 90.4702 19.9339 89.7377 22.0384C89.0034 24.1473 87.805 26.0255 86.139 27.673C84.6372 29.1568 82.9846 30.2694 81.1821 31.0117C79.3778 31.7549 77.4281 32.1261 75.3311 32.1261C73.2145 32.1261 71.254 31.7549 69.4515 31.0108C67.6499 30.2676 66.0107 29.155 64.535 27.6721C63.0422 26.1937 61.921 24.5579 61.1714 22.7619C60.4219 20.9651 60.0458 19.0118 60.0458 16.9029C60.0458 14.8091 60.4219 12.863 61.1714 11.0617C61.9201 9.26308 63.0413 7.61295 64.5341 6.1095C66.0179 4.61499 67.6615 3.49165 69.464 2.74216C71.2656 1.99267 73.2216 1.61703 75.3311 1.61703H75.5744L75.5933 1.67517V1.67606ZM80.9388 3.41205C79.2171 2.7046 77.3545 2.35043 75.35 2.35043H75.1067L75.0888 2.29587C73.1606 2.32359 71.3725 2.68045 69.7243 3.36644C68.0053 4.08194 66.4353 5.1552 65.0143 6.58531C63.5853 8.02437 62.5125 9.60205 61.7971 11.321C61.0826 13.0374 60.7253 14.8977 60.7253 16.9029C60.7253 18.9242 61.0835 20.7907 61.7971 22.5026C62.5116 24.2162 63.5844 25.7796 65.0125 27.1945L65.0134 27.1954C66.4263 28.6157 67.9919 29.6791 69.7073 30.3865C71.4245 31.0949 73.2997 31.449 75.3302 31.449C77.341 31.449 79.2054 31.0958 80.9245 30.3874C82.6435 29.6791 84.2225 28.6148 85.6614 27.1936C87.2539 25.6186 88.3993 23.8271 89.0986 21.8184C89.7691 19.891 90.0312 17.757 89.8849 15.4182H75.3958V20.3704H84.0043L83.779 20.8515C83.4226 21.6136 82.9756 22.3094 82.4361 22.9372C81.9029 23.5588 81.279 24.1116 80.5654 24.5954V24.5963C79.7889 25.1249 78.9685 25.522 78.104 25.7876C77.2387 26.0533 76.3329 26.1856 75.3868 26.1856C74.0978 26.1856 72.9048 25.9576 71.8078 25.5032C70.7109 25.0489 69.7145 24.3674 68.8168 23.4613L68.8159 23.4622C67.9075 22.5571 67.2244 21.5563 66.7675 20.4598C66.3105 19.3642 66.0816 18.1782 66.0816 16.9029C66.0816 15.6248 66.3105 14.438 66.7675 13.3414C67.2244 12.244 67.9075 11.2432 68.8159 10.3381L68.8168 10.339C69.7199 9.42675 70.719 8.74076 71.8141 8.28374C72.911 7.82492 74.1022 7.59596 75.3868 7.59596C76.6426 7.59596 77.8195 7.82581 78.9155 8.28374C79.9137 8.70141 80.8446 9.30869 81.7045 10.1056L85.4532 6.37066C84.069 5.06665 82.5645 4.08105 80.9379 3.41205H80.9388Z" fill="#3D4A39"/>
<path d="M51.8825 18.434V2.12415H57.825V32.1744L40.045 15.2983V31.6082H34.1205V1.57679L51.8825 18.434Z" fill="#3D4A39"/>
<path d="M51.2029 16.8564V1.4471H58.5045V33.7512L40.7245 16.876V32.2853H33.4409V-1.90735e-06L51.202 16.8564H51.2029ZM52.562 2.80119V20.0108L34.8009 3.15447V30.9312H39.3664V13.7216L57.1463 30.5967V2.80119H52.562Z" fill="#3D4A39"/>
<path d="M24.5379 2.19302H30.4625V31.5707H24.5379V2.19302Z" fill="#3D4A39"/>
<path d="M24.5379 1.85405H30.8018V31.9088H24.1977V1.85405H24.537H24.5379ZM30.1232 2.53109H24.8782V31.2317H30.1232V2.53109Z" fill="#3D4A39"/>
<path d="M10.5291 16.1695C11.6027 16.1695 12.5201 15.7652 13.2885 14.9504C14.0443 14.1357 14.4249 13.1653 14.4249 12.033C14.4249 10.9633 14.0317 10.0242 13.2508 9.20942C12.4456 8.4322 11.2283 8.04673 9.5928 8.04673H6.26518V16.1516H8.54972V16.1704H10.5291V16.1695ZM0.340622 2.19302H9.96084C13.082 2.19302 15.6547 3.18846 17.6771 5.18471C18.6699 6.16764 19.3692 7.09421 19.7812 7.9716C20.2803 9.04128 20.5308 10.3354 20.5308 11.8532V12.6179C20.5308 14.5963 19.9123 16.4619 18.6708 18.2158C17.7777 19.4536 16.5981 20.3552 15.1377 20.9276L21.9985 31.5707H14.757L6.28493 18.5771V31.5707H0.34152V2.19302H0.340622Z" fill="#3D4A39"/>
<path d="M10.5291 15.8314C11.0192 15.8314 11.4716 15.7402 11.8863 15.5568C12.3028 15.3726 12.687 15.0944 13.0389 14.7224C13.3881 14.3449 13.6502 13.9344 13.8235 13.4899C13.9967 13.0445 14.0847 12.5598 14.0847 12.0339C14.0847 11.5429 13.9949 11.084 13.8172 10.6556C13.6376 10.2254 13.3684 9.82207 13.0093 9.44643C12.6457 9.09673 12.1861 8.83378 11.6305 8.65759C11.0569 8.47513 10.3782 8.3848 9.5919 8.3848H6.60448V15.8126H8.88903V15.8314H10.5282H10.5291ZM12.1601 16.1748C11.6565 16.3975 11.1134 16.5076 10.5291 16.5076H8.2104V16.4888H5.92585V7.70686H9.59279C10.4429 7.70686 11.1897 7.80882 11.8351 8.01453C12.4958 8.22471 13.0461 8.54132 13.4868 8.96704L13.4958 8.97599C13.915 9.41334 14.231 9.88646 14.4429 10.3954C14.6565 10.9078 14.7633 11.4534 14.7633 12.033C14.7633 12.6394 14.6601 13.2055 14.4545 13.7323C14.249 14.2591 13.9429 14.7412 13.5371 15.1794L13.5344 15.1821C13.1188 15.623 12.661 15.9539 12.1592 16.1748H12.1601ZM0.34061 1.85405H9.96083C11.5623 1.85405 13.0263 2.11073 14.3531 2.625C15.6834 3.14016 16.871 3.9138 17.9159 4.94502C18.4222 5.44677 18.8557 5.93599 19.2175 6.41538C19.582 6.89834 19.8719 7.36879 20.0873 7.8285L20.0882 7.82939C20.3495 8.38927 20.5451 9.00639 20.6753 9.67986C20.8046 10.3498 20.8692 11.0742 20.8692 11.8523V12.617C20.8692 13.642 20.7085 14.6383 20.3881 15.606C20.0676 16.5702 19.5873 17.5048 18.9473 18.4099L18.9446 18.4126C18.4796 19.0574 17.9401 19.6146 17.3261 20.086C16.8145 20.4786 16.2516 20.8113 15.6394 21.0832L22.6178 31.9088H14.5721L6.62333 19.7166V31.9088H0.000396729V1.85405H0.339712H0.34061ZM9.96083 2.53109H0.679925V31.2317H5.9438V17.4359L14.9384 31.2317H21.3764L14.6278 20.7639L15.0129 20.6128C15.7148 20.3373 16.3486 19.984 16.9123 19.552C17.4734 19.1209 17.968 18.6111 18.3935 18.0217H18.3926C18.994 17.173 19.4437 16.2974 19.7435 15.3949C20.0416 14.497 20.1906 13.5704 20.1906 12.6179V11.8532C20.1906 11.1136 20.1304 10.432 20.0101 9.80776C19.8907 9.18795 19.7112 8.62271 19.4733 8.11291H19.4742C19.2785 7.69613 19.0128 7.26504 18.6771 6.82053C18.3378 6.37066 17.9249 5.90558 17.4392 5.42441C16.4617 4.45937 15.3513 3.73582 14.1098 3.25464C12.8648 2.77257 11.4824 2.53109 9.96173 2.53109H9.96083Z" fill="#3D4A39"/>
<path d="M6.34058 51.2095C6.96446 51.2095 7.521 51.1048 8.01113 50.8955C8.50125 50.6862 8.91866 50.3929 9.25798 50.0164C9.59819 49.6398 9.85672 49.1891 10.0354 48.6658C10.214 48.1426 10.302 47.5667 10.302 46.9379V37.8179H12.3298V46.9379C12.3298 47.8037 12.1933 48.6059 11.9168 49.3465C11.6404 50.0861 11.2445 50.7247 10.7292 51.2658C10.214 51.8069 9.58383 52.2326 8.84146 52.5394C8.0991 52.8462 7.26517 53 6.34058 53C5.41599 53 4.58207 52.8462 3.8397 52.5394C3.09734 52.2326 2.46628 51.8069 1.94833 51.2658C1.42948 50.7247 1.03451 50.0861 0.757136 49.3465C0.480657 48.6068 0.340622 47.8037 0.340622 46.9379V37.8179H2.36844V46.9272C2.36844 47.555 2.4591 48.131 2.63773 48.6551C2.81637 49.1783 3.07579 49.6291 3.41511 50.0056C3.75532 50.3822 4.17184 50.6755 4.66555 50.8884C5.15926 51.1012 5.71671 51.2095 6.33968 51.2095H6.34058Z" fill="#AE7B3C"/>
<path d="M23.397 44.3925H24.1645C24.4311 44.3925 24.6448 44.3576 24.8054 44.2914C24.9661 44.2252 25.1133 44.1135 25.2471 43.9525L30.2596 38.2982C30.3997 38.1166 30.5469 37.9914 30.7013 37.9217C30.8557 37.8519 31.0442 37.817 31.2686 37.817H32.9921L27.2543 44.2771C27.1142 44.4444 26.9814 44.5803 26.8512 44.6885C26.722 44.7968 26.5819 44.8871 26.4347 44.9569C26.6241 45.0195 26.7956 45.1107 26.95 45.2323C27.1044 45.3548 27.2543 45.5149 27.4015 45.7108L33.3916 52.8202H31.6259C31.493 52.8202 31.3808 52.8095 31.2857 52.7925C31.1914 52.7746 31.107 52.7469 31.037 52.7084C30.967 52.67 30.9077 52.6244 30.8548 52.5725C30.8018 52.5197 30.7498 52.4607 30.7004 52.3909L25.5092 46.4335C25.3692 46.2591 25.2184 46.133 25.0577 46.0596C24.897 45.9863 24.6511 45.9514 24.3225 45.9514H23.3979V52.8202H21.3701V37.8161H23.3979V44.3916L23.397 44.3925Z" fill="#AE7B3C"/>
<path d="M44.8457 45.0838C45.4346 45.0838 45.9561 45.0105 46.4076 44.8674C46.8592 44.7243 47.238 44.5222 47.5423 44.2601C47.8466 43.9981 48.0746 43.6877 48.229 43.3246C48.3834 42.9615 48.4606 42.5599 48.4606 42.1208C48.4606 41.2273 48.1662 40.5538 47.5782 40.1004C46.9893 39.6469 46.1069 39.4197 44.9301 39.4197H42.7021V45.0847H44.8457V45.0838ZM51.8026 52.822H49.9947C49.6231 52.822 49.3502 52.6789 49.1751 52.3927L45.2658 47.0318C45.1464 46.8646 45.0208 46.742 44.8843 46.6687C44.7479 46.5953 44.5342 46.5605 44.247 46.5605H42.7021V52.822H40.6743V37.8179H44.9301C45.8825 37.8179 46.7066 37.9118 47.3996 38.1041C48.0934 38.2964 48.6679 38.5755 49.1195 38.9386C49.571 39.3017 49.904 39.7381 50.1213 40.2506C50.3385 40.764 50.4471 41.34 50.4471 41.975C50.4471 42.5054 50.3627 43.0008 50.1949 43.4614C50.027 43.9221 49.7846 44.3344 49.466 44.7002C49.1473 45.0669 48.7586 45.3808 48.2999 45.6393C47.8412 45.8977 47.3188 46.0927 46.7371 46.226C46.9965 46.3726 47.2209 46.5855 47.4094 46.8646L51.8026 52.822Z" fill="#AE7B3C"/>
<path d="M66.5143 47.2509L64.1499 41.1468C64.0799 40.9652 64.0063 40.7524 63.9291 40.5118C63.8519 40.2712 63.7783 40.0163 63.7082 39.7435C63.561 40.3088 63.4102 40.7801 63.2567 41.1566L60.8923 47.25H66.5143V47.2509ZM70.7603 52.8211H69.184C69.0018 52.8211 68.8545 52.7755 68.7423 52.6852C68.6301 52.5948 68.5457 52.4795 68.4901 52.3399L67.0816 48.7168H60.3241L58.9156 52.3399C58.8734 52.4652 58.7927 52.577 58.6742 52.6753C58.5548 52.7728 58.4076 52.822 58.2325 52.822H56.6562L62.6777 37.8179H64.7379L70.7594 52.822L70.7603 52.8211Z" fill="#AE7B3C"/>
<path d="M79.4613 52.822H77.4227V37.817H79.4613V52.822Z" fill="#AE7B3C"/>
<path d="M100.889 37.817V52.8211H99.8696C99.708 52.8211 99.5752 52.7934 99.4665 52.737C99.3579 52.6816 99.2493 52.5868 99.1443 52.4544L90.4325 41.1459C90.4468 41.3203 90.4567 41.4911 90.4639 41.6593C90.4711 41.8265 90.4747 41.9839 90.4747 42.1306V52.8211H88.6883V37.817H89.7395C89.8302 37.817 89.9074 37.8206 89.9711 37.8313C90.0339 37.8421 90.0905 37.8591 90.1389 37.8841C90.1883 37.9082 90.2368 37.9431 90.2862 37.9887C90.3355 38.0344 90.3876 38.0934 90.4441 38.1631L99.1559 49.4609C99.1416 49.2794 99.1317 49.1014 99.1209 48.9306C99.1102 48.7597 99.103 48.5988 99.103 48.4458V37.8179H100.889V37.817Z" fill="#AE7B3C"/>
<path d="M117.41 47.2509L115.045 41.1468C114.975 40.9652 114.902 40.7524 114.825 40.5118C114.747 40.2712 114.674 40.0163 114.604 39.7435C114.457 40.3088 114.306 40.7801 114.152 41.1566L111.788 47.25H117.41V47.2509ZM121.656 52.8211H120.079C119.897 52.8211 119.75 52.7755 119.638 52.6852C119.526 52.5948 119.441 52.4795 119.386 52.3399L117.977 48.7168H111.22L109.811 52.3399C109.769 52.4652 109.688 52.577 109.57 52.6753C109.45 52.7728 109.303 52.822 109.128 52.822H107.552L113.573 37.8179H115.633L121.655 52.822L121.656 52.8211Z" fill="#AE7B3C"/>
</svg>
