<svg width="24" height="24" viewBox="0 0 24 24" fill="none" xmlns="http://www.w3.org/2000/svg">
<path d="M20.9469 8.305C20.9369 7.54762 20.7951 6.79777 20.5279 6.089C20.2963 5.49115 19.9425 4.9482 19.4891 4.49483C19.0358 4.04146 18.4928 3.68765 17.8949 3.456C17.1953 3.19336 16.4561 3.05134 15.7089 3.036C14.7469 2.993 14.4419 2.981 11.9999 2.981C9.55795 2.981 9.24495 2.981 8.28995 3.036C7.54311 3.05145 6.8043 3.19347 6.10495 3.456C5.50701 3.68749 4.96397 4.04124 4.51058 4.49463C4.05719 4.94802 3.70344 5.49106 3.47195 6.089C3.20878 6.78813 3.06707 7.52711 3.05295 8.274C3.00995 9.237 2.99695 9.542 2.99695 11.984C2.99695 14.426 2.99695 14.738 3.05295 15.694C3.06795 16.442 3.20895 17.18 3.47195 17.881C3.70383 18.4788 4.05784 19.0216 4.51138 19.4748C4.96492 19.928 5.50801 20.2816 6.10595 20.513C6.80338 20.7862 7.54232 20.9384 8.29095 20.963C9.25395 21.006 9.55895 21.019 12.0009 21.019C14.4429 21.019 14.7559 21.019 15.7109 20.963C16.4581 20.9483 17.1973 20.8066 17.8969 20.544C18.4946 20.3121 19.0375 19.9582 19.4908 19.5048C19.9441 19.0515 20.298 18.5087 20.5299 17.911C20.7929 17.211 20.9339 16.473 20.9489 15.724C20.9919 14.762 21.0049 14.457 21.0049 12.014C21.0029 9.572 21.0029 9.262 20.9469 8.305ZM11.9939 16.602C9.43995 16.602 7.37095 14.533 7.37095 11.979C7.37095 9.425 9.43995 7.356 11.9939 7.356C13.22 7.356 14.3959 7.84306 15.2629 8.71004C16.1299 9.57703 16.6169 10.7529 16.6169 11.979C16.6169 13.2051 16.1299 14.381 15.2629 15.248C14.3959 16.1149 13.22 16.602 11.9939 16.602ZM16.8009 8.263C16.6593 8.26313 16.5191 8.23534 16.3883 8.18121C16.2574 8.12708 16.1385 8.04768 16.0384 7.94755C15.9383 7.84743 15.8589 7.72854 15.8047 7.59769C15.7506 7.46684 15.7228 7.3266 15.7229 7.185C15.7229 7.0435 15.7508 6.90339 15.805 6.77266C15.8591 6.64193 15.9385 6.52315 16.0385 6.42309C16.1386 6.32304 16.2574 6.24367 16.3881 6.18952C16.5188 6.13537 16.6589 6.1075 16.8004 6.1075C16.9419 6.1075 17.0821 6.13537 17.2128 6.18952C17.3435 6.24367 17.4623 6.32304 17.5624 6.42309C17.6624 6.52315 17.7418 6.64193 17.7959 6.77266C17.8501 6.90339 17.8779 7.0435 17.8779 7.185C17.8779 7.781 17.3959 8.263 16.8009 8.263Z" fill="#AE7B3C"/>
<path d="M11.994 14.982C13.6525 14.982 14.997 13.6375 14.997 11.979C14.997 10.3205 13.6525 8.976 11.994 8.976C10.3355 8.976 8.99097 10.3205 8.99097 11.979C8.99097 13.6375 10.3355 14.982 11.994 14.982Z" fill="#AE7B3C"/>
</svg>
