<svg width="17" height="17" viewBox="0 0 17 17" fill="none" xmlns="http://www.w3.org/2000/svg">
<g clip-path="url(#clip0_11_415)">
<path d="M8.50003 5.504C8.07376 5.504 7.65166 5.58796 7.25784 5.75109C6.86402 5.91421 6.50618 6.15331 6.20476 6.45473C5.90334 6.75615 5.66424 7.11399 5.50112 7.50781C5.33799 7.90163 5.25403 8.32373 5.25403 8.75C5.25403 9.17627 5.33799 9.59837 5.50112 9.99219C5.66424 10.386 5.90334 10.7438 6.20476 11.0453C6.50618 11.3467 6.86402 11.5858 7.25784 11.7489C7.65166 11.912 8.07376 11.996 8.50003 11.996C9.36092 11.996 10.1866 11.654 10.7953 11.0453C11.404 10.4365 11.746 9.61089 11.746 8.75C11.746 7.88911 11.404 7.06347 10.7953 6.45473C10.1866 5.84599 9.36092 5.504 8.50003 5.504ZM6.25403 8.75C6.25403 8.15432 6.49066 7.58304 6.91187 7.16184C7.33307 6.74063 7.90435 6.504 8.50003 6.504C9.0957 6.504 9.66698 6.74063 10.0882 7.16184C10.5094 7.58304 10.746 8.15432 10.746 8.75C10.746 9.34568 10.5094 9.91695 10.0882 10.3382C9.66698 10.7594 9.0957 10.996 8.50003 10.996C7.90435 10.996 7.33307 10.7594 6.91187 10.3382C6.49066 9.91695 6.25403 9.34568 6.25403 8.75Z" fill="#ABABAB"/>
<path d="M10.296 2.093C9.76899 0.303 7.23099 0.303 6.70399 2.093L6.60999 2.412C6.57318 2.53695 6.50889 2.65208 6.4218 2.74896C6.33472 2.84583 6.22707 2.92199 6.10673 2.97185C5.98639 3.02171 5.85642 3.04401 5.72634 3.03712C5.59627 3.03022 5.46938 2.9943 5.35499 2.932L5.06299 2.772C3.42299 1.88 1.62999 3.674 2.52299 5.313L2.68199 5.605C2.74429 5.71939 2.78021 5.84628 2.78711 5.97635C2.794 6.10643 2.7717 6.2364 2.72184 6.35674C2.67198 6.47708 2.59582 6.58474 2.49895 6.67182C2.40207 6.7589 2.28694 6.8232 2.16199 6.86L1.84299 6.954C0.0529883 7.481 0.0529883 10.019 1.84299 10.546L2.16199 10.64C2.28694 10.6768 2.40207 10.7411 2.49895 10.8282C2.59582 10.9153 2.67198 11.0229 2.72184 11.1433C2.7717 11.2636 2.794 11.3936 2.78711 11.5236C2.78021 11.6537 2.74429 11.7806 2.68199 11.895L2.52199 12.187C1.62999 13.827 3.42299 15.621 5.06299 14.727L5.35499 14.568C5.46938 14.5057 5.59627 14.4698 5.72634 14.4629C5.85642 14.456 5.98639 14.4783 6.10673 14.5281C6.22707 14.578 6.33472 14.6542 6.4218 14.751C6.50889 14.8479 6.57318 14.963 6.60999 15.088L6.70399 15.407C7.23099 17.197 9.76899 17.197 10.296 15.407L10.39 15.088C10.4268 14.963 10.4911 14.8479 10.5782 14.751C10.6653 14.6542 10.7729 14.578 10.8932 14.5281C11.0136 14.4783 11.1436 14.456 11.2736 14.4629C11.4037 14.4698 11.5306 14.5057 11.645 14.568L11.937 14.728C13.577 15.621 15.371 13.826 14.477 12.187L14.318 11.895C14.2557 11.7806 14.2198 11.6537 14.2129 11.5236C14.206 11.3936 14.2283 11.2636 14.2781 11.1433C14.328 11.0229 14.4042 10.9153 14.501 10.8282C14.5979 10.7411 14.713 10.6768 14.838 10.64L15.157 10.546C16.947 10.019 16.947 7.481 15.157 6.954L14.838 6.86C14.713 6.8232 14.5979 6.7589 14.501 6.67182C14.4042 6.58474 14.328 6.47708 14.2781 6.35674C14.2283 6.2364 14.206 6.10643 14.2129 5.97635C14.2198 5.84628 14.2557 5.71939 14.318 5.605L14.478 5.313C15.371 3.673 13.576 1.88 11.937 2.773L11.645 2.932C11.5306 2.9943 11.4037 3.03022 11.2736 3.03712C11.1436 3.04401 11.0136 3.02171 10.8932 2.97185C10.7729 2.92199 10.6653 2.84583 10.5782 2.74896C10.4911 2.65208 10.4268 2.53695 10.39 2.412L10.296 2.093ZM7.66299 2.376C7.90899 1.541 9.09099 1.541 9.33699 2.376L9.43099 2.695C9.51001 2.96308 9.64802 3.21009 9.83491 3.4179C10.0218 3.62571 10.2528 3.78906 10.5111 3.89598C10.7693 4.0029 11.0482 4.05067 11.3273 4.03579C11.6064 4.02091 11.8786 3.94376 12.124 3.81L12.415 3.65C13.179 3.235 14.015 4.07 13.599 4.835L13.44 5.127C13.3064 5.37243 13.2295 5.64463 13.2148 5.92366C13.2 6.20268 13.2479 6.48147 13.3549 6.73958C13.4619 6.9977 13.6253 7.2286 13.8332 7.41538C14.041 7.60215 14.288 7.74006 14.556 7.819L14.874 7.913C15.709 8.159 15.709 9.341 14.874 9.587L14.555 9.681C14.2869 9.76002 14.0399 9.89804 13.8321 10.0849C13.6243 10.2718 13.4609 10.5028 13.354 10.7611C13.2471 11.0193 13.1993 11.2982 13.2142 11.5773C13.2291 11.8564 13.3062 12.1286 13.44 12.374L13.6 12.665C14.015 13.429 13.18 14.265 12.415 13.849L12.124 13.69C11.8785 13.5562 11.6062 13.4791 11.3271 13.4643C11.0479 13.4495 10.769 13.4974 10.5108 13.6044C10.2525 13.7114 10.0215 13.8749 9.83467 14.0828C9.64783 14.2907 9.50989 14.5378 9.43099 14.806L9.33699 15.124C9.09099 15.959 7.90899 15.959 7.66299 15.124L7.56899 14.805C7.48993 14.5371 7.35194 14.2902 7.16512 14.0825C6.9783 13.8748 6.74738 13.7115 6.48928 13.6046C6.23118 13.4977 5.95243 13.4499 5.67346 13.4646C5.39448 13.4794 5.12235 13.5564 4.87699 13.69L4.58499 13.85C3.82099 14.265 2.98499 13.43 3.40099 12.665L3.55999 12.374C3.69394 12.1286 3.77124 11.8562 3.78621 11.577C3.80119 11.2978 3.75346 11.0188 3.64653 10.7604C3.5396 10.5021 3.37618 10.2709 3.16827 10.084C2.96035 9.89702 2.71321 9.75899 2.44499 9.68L2.12599 9.586C1.29099 9.34 1.29099 8.158 2.12599 7.912L2.44499 7.818C2.71279 7.73891 2.95953 7.60094 3.16713 7.41419C3.37473 7.22744 3.53795 6.99663 3.64484 6.73866C3.75173 6.48068 3.79959 6.20207 3.7849 5.92322C3.77022 5.64436 3.69338 5.37232 3.55999 5.127L3.39999 4.835C2.98499 4.071 3.81999 3.235 4.58499 3.651L4.87699 3.81C5.12235 3.94358 5.39448 4.02057 5.67346 4.03535C5.95243 4.05013 6.23118 4.00232 6.48928 3.89542C6.74738 3.78851 6.9783 3.62523 7.16512 3.41752C7.35194 3.20981 7.48993 2.96295 7.56899 2.695L7.66299 2.376Z" fill="#ABABAB"/>
</g>
<defs>
<clipPath id="clip0_11_415">
<rect width="16" height="16" fill="white" transform="translate(0.5 0.75)"/>
</clipPath>
</defs>
</svg>
