<svg width="13" height="13" viewBox="0 0 13 13" fill="none" xmlns="http://www.w3.org/2000/svg">
<g clip-path="url(#clip0_13_29)">
<path d="M4.27405 1.5V7.5H1.27405V1.5H4.27405ZM1.27405 0.75C1.07514 0.75 0.88437 0.829018 0.743718 0.96967C0.603065 1.11032 0.524048 1.30109 0.524048 1.5L0.524048 7.5C0.524048 7.69891 0.603065 7.88968 0.743718 8.03033C0.88437 8.17098 1.07514 8.25 1.27405 8.25H4.27405C4.47296 8.25 4.66373 8.17098 4.80438 8.03033C4.94503 7.88968 5.02405 7.69891 5.02405 7.5V1.5C5.02405 1.30109 4.94503 1.11032 4.80438 0.96967C4.66373 0.829018 4.47296 0.75 4.27405 0.75H1.27405ZM11.024 2.25V6H7.27405V2.25H11.024ZM7.27405 1.5C7.07514 1.5 6.88437 1.57902 6.74372 1.71967C6.60307 1.86032 6.52405 2.05109 6.52405 2.25V6C6.52405 6.19891 6.60307 6.38968 6.74372 6.53033C6.88437 6.67098 7.07514 6.75 7.27405 6.75H11.024C11.223 6.75 11.4137 6.67098 11.5544 6.53033C11.695 6.38968 11.774 6.19891 11.774 6V2.25C11.774 2.05109 11.695 1.86032 11.5544 1.71967C11.4137 1.57902 11.223 1.5 11.024 1.5H7.27405ZM4.27405 10.5V12H2.77405V10.5H4.27405ZM2.77405 9.75C2.57514 9.75 2.38437 9.82902 2.24372 9.96967C2.10307 10.1103 2.02405 10.3011 2.02405 10.5V12C2.02405 12.1989 2.10307 12.3897 2.24372 12.5303C2.38437 12.671 2.57514 12.75 2.77405 12.75H4.27405C4.47296 12.75 4.66373 12.671 4.80438 12.5303C4.94503 12.3897 5.02405 12.1989 5.02405 12V10.5C5.02405 10.3011 4.94503 10.1103 4.80438 9.96967C4.66373 9.82902 4.47296 9.75 4.27405 9.75H2.77405ZM11.774 9V10.5H7.27405V9H11.774ZM7.27405 8.25C7.07514 8.25 6.88437 8.32902 6.74372 8.46967C6.60307 8.61032 6.52405 8.80109 6.52405 9V10.5C6.52405 10.6989 6.60307 10.8897 6.74372 11.0303C6.88437 11.171 7.07514 11.25 7.27405 11.25H11.774C11.973 11.25 12.1637 11.171 12.3044 11.0303C12.445 10.8897 12.524 10.6989 12.524 10.5V9C12.524 8.80109 12.445 8.61032 12.3044 8.46967C12.1637 8.32902 11.973 8.25 11.774 8.25H7.27405Z" fill="#ABABAB"/>
</g>
<defs>
<clipPath id="clip0_13_29">
<rect width="12" height="12" fill="white" transform="translate(0.524048 0.75)"/>
</clipPath>
</defs>
</svg>
