<svg width="17" height="17" viewBox="0 0 17 17" fill="none" xmlns="http://www.w3.org/2000/svg">
<g clip-path="url(#clip0_11_408)">
<path fill-rule="evenodd" clip-rule="evenodd" d="M3.6 11.7C3.64657 11.6379 3.70697 11.5875 3.77639 11.5528C3.84582 11.5181 3.92238 11.5 4 11.5H6.5C6.63261 11.5 6.75979 11.5527 6.85355 11.6464C6.94732 11.7402 7 11.8674 7 12C7 12.1326 6.94732 12.2598 6.85355 12.3536C6.75979 12.4473 6.63261 12.5 6.5 12.5H4.25L2 15.5H15L12.75 12.5H10.5C10.3674 12.5 10.2402 12.4473 10.1464 12.3536C10.0527 12.2598 10 12.1326 10 12C10 11.8674 10.0527 11.7402 10.1464 11.6464C10.2402 11.5527 10.3674 11.5 10.5 11.5H13C13.0776 11.5 13.1542 11.5181 13.2236 11.5528C13.293 11.5875 13.3534 11.6379 13.4 11.7L16.4 15.7C16.4557 15.7743 16.4896 15.8626 16.498 15.9551C16.5063 16.0476 16.4887 16.1406 16.4472 16.2236C16.4057 16.3067 16.3419 16.3765 16.2629 16.4253C16.1839 16.4741 16.0929 16.5 16 16.5H1C0.907144 16.5 0.816123 16.4741 0.737135 16.4253C0.658147 16.3765 0.594313 16.3067 0.552787 16.2236C0.51126 16.1406 0.493682 16.0476 0.502021 15.9551C0.51036 15.8626 0.544287 15.7743 0.6 15.7L3.6 11.7Z" fill="#ABABAB"/>
<path fill-rule="evenodd" clip-rule="evenodd" d="M8.5 1.5C8.10603 1.5 7.71593 1.57759 7.35195 1.72836C6.98797 1.87912 6.65726 2.1001 6.37868 2.37868C6.1001 2.65725 5.87913 2.98797 5.72836 3.35195C5.5776 3.71592 5.5 4.10603 5.5 4.5C5.5 4.89396 5.5776 5.28407 5.72836 5.64805C5.87913 6.01202 6.1001 6.34274 6.37868 6.62132C6.65726 6.89989 6.98797 7.12087 7.35195 7.27163C7.71593 7.4224 8.10603 7.5 8.5 7.5C9.29565 7.5 10.0587 7.18393 10.6213 6.62132C11.1839 6.05871 11.5 5.29564 11.5 4.5C11.5 3.70435 11.1839 2.94128 10.6213 2.37868C10.0587 1.81607 9.29565 1.5 8.5 1.5ZM4.5 4.5C4.50007 3.73022 4.72226 2.97682 5.13989 2.33019C5.55753 1.68356 6.15288 1.17117 6.8545 0.854502C7.55613 0.537837 8.33422 0.430348 9.09542 0.544932C9.85662 0.659517 10.5686 0.991307 11.1459 1.50049C11.7232 2.00968 12.1413 2.67463 12.3501 3.41555C12.5589 4.15647 12.5494 4.9419 12.3228 5.67758C12.0963 6.41326 11.6623 7.06795 11.0729 7.56309C10.4835 8.05822 9.76374 8.37277 9 8.469V14C9 14.1326 8.94732 14.2598 8.85355 14.3535C8.75979 14.4473 8.63261 14.5 8.5 14.5C8.36739 14.5 8.24022 14.4473 8.14645 14.3535C8.05268 14.2598 8 14.1326 8 14V8.47C7.03297 8.34816 6.14369 7.87743 5.49922 7.14623C4.85474 6.41503 4.49942 5.47368 4.5 4.499V4.5Z" fill="#ABABAB"/>
</g>
<defs>
<clipPath id="clip0_11_408">
<rect width="16" height="16" fill="white" transform="translate(0.5 0.5)"/>
</clipPath>
</defs>
</svg>
