<svg width="46" height="69" viewBox="0 0 46 69" fill="none" xmlns="http://www.w3.org/2000/svg">
<path d="M44.4651 47.0372C44.7401 47.0372 45.0039 46.9267 45.1984 46.73C45.3929 46.5333 45.5022 46.2665 45.5022 45.9883C45.5022 32.3673 37.0185 23.4452 23.7917 23.0047V1.04884C23.7917 0.770674 23.6824 0.503896 23.4879 0.3072C23.2934 0.110503 23.0296 0 22.7545 0C22.4795 0 22.2157 0.110503 22.0212 0.3072C21.8267 0.503896 21.7174 0.770674 21.7174 1.04884V23.0047C8.48369 23.4452 0 32.3673 0 45.9883C0 46.2665 0.109268 46.5333 0.303767 46.73C0.498266 46.9267 0.762063 47.0372 1.03713 47.0372H14.5543C14.855 49.0351 15.8402 50.8627 17.3377 52.2008C18.8353 53.5389 20.75 54.3025 22.7476 54.3581C24.7464 54.3041 26.6628 53.5412 28.1618 52.203C29.6608 50.8648 30.6469 49.0363 30.9478 47.0372H44.4651ZM22.7476 25.0814C32.5104 25.0814 42.9301 30.3256 43.4072 44.9395H2.07425C2.56516 30.3256 12.9848 25.0814 22.7476 25.0814ZM22.7476 52.2604C21.3009 52.2043 19.9145 51.6593 18.8102 50.7124C17.706 49.7654 16.9475 48.4714 16.6562 47.0372H28.8459C28.5544 48.4725 27.7949 49.7674 26.6892 50.7145C25.5835 51.6615 24.1956 52.2059 22.7476 52.2604ZM45.5921 59.7981L39.155 54.8336C38.9358 54.6648 38.6594 54.591 38.3864 54.6284C38.1135 54.6658 37.8664 54.8113 37.6995 55.0329C37.5327 55.2545 37.4597 55.5341 37.4966 55.8101C37.5336 56.0861 37.6775 56.336 37.8966 56.5048L44.3337 61.4693C44.5528 61.6381 44.8293 61.7119 45.1022 61.6745C45.2374 61.656 45.3676 61.6107 45.4854 61.5413C45.6033 61.4719 45.7065 61.3797 45.7891 61.27C45.8717 61.1603 45.9322 61.0352 45.967 60.9018C46.0018 60.7685 46.0103 60.6295 45.992 60.4928C45.9737 60.3561 45.929 60.2244 45.8604 60.1052C45.7917 59.986 45.7006 59.8817 45.5921 59.7981ZM8.02736 54.7497L1.77003 59.938C1.64288 60.0165 1.53396 60.1218 1.45067 60.2468C1.36739 60.3717 1.3117 60.5133 1.28739 60.662C1.26309 60.8106 1.27074 60.9628 1.30982 61.1082C1.3489 61.2536 1.4185 61.3888 1.51388 61.5045C1.60926 61.6203 1.72818 61.7139 1.86255 61.779C1.99691 61.8441 2.14357 61.8791 2.29253 61.8818C2.4415 61.8844 2.58927 61.8545 2.7258 61.7942C2.86233 61.7339 2.98441 61.6445 3.08372 61.5322L9.34796 56.3509C9.45781 56.2652 9.54953 56.1581 9.6177 56.0359C9.68588 55.9137 9.72912 55.7789 9.74486 55.6395C9.7606 55.5001 9.74853 55.359 9.70936 55.2244C9.67019 55.0898 9.60472 54.9645 9.51682 54.856C9.42892 54.7474 9.32037 54.6578 9.19761 54.5924C9.07486 54.5271 8.94038 54.4873 8.80214 54.4754C8.6639 54.4636 8.52472 54.4799 8.39282 54.5234C8.26093 54.5669 8.139 54.6367 8.03427 54.7287L8.02736 54.7497ZM23.0519 59.5814C22.7768 59.5814 22.513 59.6919 22.3185 59.8886C22.124 60.0853 22.0147 60.352 22.0147 60.6302V67.9512C22.0147 68.2293 22.124 68.4961 22.3185 68.6928C22.513 68.8895 22.7768 69 23.0519 69C23.3269 69 23.5907 68.8895 23.7852 68.6928C23.9797 68.4961 24.089 68.2293 24.089 67.9512V60.6302C24.089 60.352 23.9797 60.0853 23.7852 59.8886C23.5907 59.6919 23.3269 59.5814 23.0519 59.5814Z" fill="white"/>
</svg>
