<svg width="10" height="12" viewBox="0 0 10 12" fill="none" xmlns="http://www.w3.org/2000/svg">
<path d="M8 0H2C1.60218 0 1.22064 0.158035 0.93934 0.43934C0.658035 0.720644 0.5 1.10218 0.5 1.5V10.5C0.5 10.8978 0.658035 11.2794 0.93934 11.5607C1.22064 11.842 1.60218 12 2 12H8C8.39782 12 8.77936 11.842 9.06066 11.5607C9.34196 11.2794 9.5 10.8978 9.5 10.5V1.5C9.5 1.10218 9.34196 0.720644 9.06066 0.43934C8.77936 0.158035 8.39782 0 8 0ZM2.75 3H7.25C7.34946 3 7.44484 3.03951 7.51517 3.10984C7.58549 3.18016 7.625 3.27554 7.625 3.375C7.625 3.47446 7.58549 3.56984 7.51517 3.64016C7.44484 3.71049 7.34946 3.75 7.25 3.75H2.75C2.65054 3.75 2.55516 3.71049 2.48484 3.64016C2.41451 3.56984 2.375 3.47446 2.375 3.375C2.375 3.27554 2.41451 3.18016 2.48484 3.10984C2.55516 3.03951 2.65054 3 2.75 3ZM2.375 4.875C2.375 4.77554 2.41451 4.68016 2.48484 4.60984C2.55516 4.53951 2.65054 4.5 2.75 4.5H7.25C7.34946 4.5 7.44484 4.53951 7.51517 4.60984C7.58549 4.68016 7.625 4.77554 7.625 4.875C7.625 4.97446 7.58549 5.06984 7.51517 5.14016C7.44484 5.21049 7.34946 5.25 7.25 5.25H2.75C2.65054 5.25 2.55516 5.21049 2.48484 5.14016C2.41451 5.06984 2.375 4.97446 2.375 4.875ZM2.75 6H7.25C7.34946 6 7.44484 6.03951 7.51517 6.10983C7.58549 6.18016 7.625 6.27554 7.625 6.375C7.625 6.47446 7.58549 6.56984 7.51517 6.64017C7.44484 6.71049 7.34946 6.75 7.25 6.75H2.75C2.65054 6.75 2.55516 6.71049 2.48484 6.64017C2.41451 6.56984 2.375 6.47446 2.375 6.375C2.375 6.27554 2.41451 6.18016 2.48484 6.10983C2.55516 6.03951 2.65054 6 2.75 6ZM2.75 7.5H5C5.09946 7.5 5.19484 7.53951 5.26517 7.60983C5.33549 7.68016 5.375 7.77554 5.375 7.875C5.375 7.97446 5.33549 8.06984 5.26517 8.14017C5.19484 8.21049 5.09946 8.25 5 8.25H2.75C2.65054 8.25 2.55516 8.21049 2.48484 8.14017C2.41451 8.06984 2.375 7.97446 2.375 7.875C2.375 7.77554 2.41451 7.68016 2.48484 7.60983C2.55516 7.53951 2.65054 7.5 2.75 7.5Z" fill="#003CFF"/>
</svg>
