<svg width="15" height="15" viewBox="0 0 15 15" fill="none" xmlns="http://www.w3.org/2000/svg">
<path d="M3.5 10.75H1.5V13.75H3.5V10.75ZM8.5 6.75H6.5V13.75H8.5V6.75ZM13.5 1.75V13.75H11.5V1.75H13.5ZM11.5 0.75C11.2348 0.75 10.9804 0.855357 10.7929 1.04289C10.6054 1.23043 10.5 1.48478 10.5 1.75V13.75C10.5 14.0152 10.6054 14.2696 10.7929 14.4571C10.9804 14.6446 11.2348 14.75 11.5 14.75H13.5C13.7652 14.75 14.0196 14.6446 14.2071 14.4571C14.3946 14.2696 14.5 14.0152 14.5 13.75V1.75C14.5 1.48478 14.3946 1.23043 14.2071 1.04289C14.0196 0.855357 13.7652 0.75 13.5 0.75H11.5ZM5.5 6.75C5.5 6.48478 5.60536 6.23043 5.79289 6.04289C5.98043 5.85536 6.23478 5.75 6.5 5.75H8.5C8.76522 5.75 9.01957 5.85536 9.20711 6.04289C9.39464 6.23043 9.5 6.48478 9.5 6.75V13.75C9.5 14.0152 9.39464 14.2696 9.20711 14.4571C9.01957 14.6446 8.76522 14.75 8.5 14.75H6.5C6.23478 14.75 5.98043 14.6446 5.79289 14.4571C5.60536 14.2696 5.5 14.0152 5.5 13.75V6.75ZM0.5 10.75C0.5 10.4848 0.605357 10.2304 0.792893 10.0429C0.98043 9.85536 1.23478 9.75 1.5 9.75H3.5C3.76522 9.75 4.01957 9.85536 4.20711 10.0429C4.39464 10.2304 4.5 10.4848 4.5 10.75V13.75C4.5 14.0152 4.39464 14.2696 4.20711 14.4571C4.01957 14.6446 3.76522 14.75 3.5 14.75H1.5C1.23478 14.75 0.98043 14.6446 0.792893 14.4571C0.605357 14.2696 0.5 14.0152 0.5 13.75V10.75Z" fill="#ABABAB"/>
</svg>
