<svg width="61" height="63" viewBox="0 0 61 63" fill="none" xmlns="http://www.w3.org/2000/svg">
<path d="M56.6745 0H4.32639C2.38619 0 0.807251 1.57795 0.807251 3.51816V55.8672C0.807251 57.8074 2.38619 59.3834 4.32541 59.3834H6.02936V62.0461C6.02936 62.5728 6.45658 63 6.9842 63H15.2953C15.8229 63 16.2501 62.5728 16.2501 62.0461V59.3834H44.7478V62.0461C44.7478 62.5728 45.175 63 45.7026 63H54.0137C54.5403 63 54.9676 62.5728 54.9676 62.0461V59.3834H56.6725C58.6127 59.3834 60.1907 57.8064 60.1907 55.8672V3.51816C60.1926 1.57795 58.6147 0 56.6745 0ZM4.32639 1.90772H56.6745C57.5604 1.90772 58.2839 2.63025 58.2839 3.51816V13.0558H2.71694V3.51816C2.71694 2.63123 3.43848 1.90772 4.32639 1.90772ZM14.3414 61.0913H7.94003V59.3844H14.3424V61.0913H14.3414ZM53.0598 61.0913H46.6575V59.3844H53.0598V61.0913ZM56.6745 57.4747H4.32639C3.43947 57.4747 2.71694 56.7541 2.71694 55.8672V14.9655H58.2839V55.8672C58.2839 56.7532 57.5604 57.4747 56.6745 57.4747Z" fill="white"/>
</svg>
